<?xml version="1.0" encoding="utf-8"?>
<!-- Generator: Adobe Illustrator 20.0.0, SVG Export Plug-In . SVG Version: 6.00 Build 0)  -->
<svg version="1.1" id="Camada_1" xmlns="http://www.w3.org/2000/svg" xmlns:xlink="http://www.w3.org/1999/xlink" x="0px" y="0px"
	 viewBox="0 0 570 220.4" style="enable-background:new 0 0 570 220.4;" xml:space="preserve">
<style type="text/css">
	.st0{fill:#758393;}
	.st1{fill:#69BC45;}
</style>
<g>
	<g>
		<path class="st0" d="M367.3,193.1h-7v7.4h8.2v2.2h-11.1V182h11v2.2h-8.2v6.6h7V193.1z"/>
		<path class="st0" d="M397.5,197.5c0-0.9-0.3-1.7-0.8-2.3c-0.5-0.6-1.5-1.2-2.8-1.7c-1.9-0.6-3.4-1.4-4.5-2.3c-1-1-1.6-2.2-1.6-3.8
			c0-1.6,0.6-3,1.7-4c1.1-1.1,2.6-1.6,4.4-1.6c1.9,0,3.4,0.6,4.6,1.8c1.2,1.2,1.7,2.6,1.7,4.4l0,0.1h-2.8c0-1.2-0.3-2.2-1-2.9
			c-0.6-0.7-1.5-1.1-2.5-1.1c-1,0-1.8,0.3-2.4,1s-0.8,1.4-0.8,2.4c0,0.9,0.3,1.6,0.9,2.2c0.6,0.6,1.6,1.1,3,1.7
			c1.9,0.6,3.3,1.4,4.3,2.4c1,1,1.5,2.3,1.5,3.9c0,1.7-0.6,3-1.7,4s-2.7,1.5-4.6,1.5c-1.8,0-3.4-0.5-4.7-1.6c-1.3-1.1-2-2.6-1.9-4.6
			l0-0.1h2.8c0,1.4,0.4,2.4,1.1,3.1c0.7,0.7,1.7,1,2.8,1c1.1,0,1.9-0.3,2.5-0.9C397.1,199.3,397.5,198.5,397.5,197.5z"/>
		<path class="st0" d="M432.5,184.2H427v18.4h-2.9v-18.4h-5.4V182h13.8V184.2z"/>
		<path class="st0" d="M465,182v13.6c0,2.3-0.6,4.1-1.9,5.4c-1.3,1.3-3,1.9-5,1.9c-2,0-3.6-0.6-4.9-1.9c-1.3-1.3-1.9-3.1-1.9-5.3
			V182h2.9v13.6c0,1.6,0.4,2.8,1.1,3.7c0.7,0.9,1.7,1.4,2.8,1.4c1.2,0,2.2-0.4,2.9-1.3s1.1-2.1,1.1-3.8V182H465z M459.2,176.2h3.3
			l0,0.1l-3.4,3.7h-2.4L459.2,176.2z"/>
		<path class="st0" d="M485.3,202.6V182h5.8c2.2,0,4,0.8,5.5,2.5c1.4,1.7,2.1,3.8,2.1,6.4v2.9c0,2.6-0.7,4.7-2.1,6.4
			s-3.2,2.5-5.5,2.5H485.3z M488.2,184.2v16.2h3c1.4,0,2.5-0.6,3.4-1.9s1.3-2.8,1.3-4.8v-3c0-1.9-0.4-3.5-1.3-4.8s-2-1.9-3.4-1.9
			H488.2z"/>
		<path class="st0" d="M521.9,202.6H519V182h2.9V202.6z"/>
		<path class="st0" d="M556.5,195.2c0,2.4-0.7,4.3-2,5.7c-1.3,1.4-3.1,2-5.3,2c-2.2,0-3.9-0.7-5.2-2c-1.3-1.4-1.9-3.3-1.9-5.7v-5.7
			c0-2.4,0.6-4.3,1.9-5.7c1.3-1.4,3-2.1,5.2-2.1c2.2,0,4,0.7,5.3,2.1c1.3,1.4,2,3.3,2,5.7V195.2z M553.7,189.5
			c0-1.8-0.4-3.2-1.2-4.1s-1.9-1.4-3.3-1.4c-1.4,0-2.4,0.5-3.2,1.4s-1.1,2.3-1.1,4.1v5.7c0,1.8,0.4,3.2,1.1,4.1
			c0.7,0.9,1.8,1.4,3.2,1.4c1.4,0,2.5-0.5,3.3-1.4s1.1-2.3,1.1-4.1V189.5z"/>
	</g>
	<path class="st0" d="M227.6,17.1c1.6-0.1,3.2,0.2,4.7,0.8c1.5,0.7,2.8,1.6,4,2.7c1.2,1.1,2.1,2.5,2.7,4c0.6,1.6,0.9,3.2,0.9,4.8V51
		c4.4-2.2,8.9-3.7,13.6-4.4c4.7-0.7,9.3-0.7,14,0c4.6,0.7,9.1,2.1,13.5,4.1c4.4,2.1,8.4,4.8,12.2,8.3c4.4,4.5,7.6,9.3,9.8,14.5
		c2.2,5.2,3.3,11.1,3.3,17.7c0,6.2-1.2,12.1-3.7,17.6c-2.4,5.5-5.7,10.3-9.8,14.4c-4.1,4.1-8.9,7.4-14.4,9.7
		c-5.5,2.4-11.3,3.6-17.4,3.6c-6,0-11.7-1.2-17.2-3.7c-5.5-2.4-10.3-5.7-14.5-9.8c-4.2-4.1-7.5-8.9-10-14.4
		c-2.5-5.5-3.7-11.3-3.7-17.4V28.5c0-1.5,0.4-3,1.1-4.4c0.7-1.4,1.7-2.7,2.8-3.7c1.1-1.1,2.4-1.9,3.8-2.5
		C224.6,17.2,226.1,17,227.6,17.1z M239.9,91.3c0,2.9,0.6,5.6,1.7,8.1c1.1,2.6,2.7,4.8,4.6,6.6c1.9,1.9,4.1,3.4,6.6,4.5
		c2.5,1.1,5.2,1.7,8.1,1.7c2.7,0,5.4-0.6,8-1.7c2.6-1.1,4.8-2.6,6.7-4.5c1.9-1.9,3.5-4.1,4.6-6.6c1.1-2.6,1.7-5.3,1.7-8.1
		c0-2.9-0.6-5.6-1.7-8.1c-1.1-2.6-2.7-4.8-4.6-6.6c-1.9-1.9-4.2-3.4-6.7-4.5c-2.6-1.1-5.2-1.7-8-1.7c-2.9,0-5.6,0.6-8.1,1.8
		c-2.5,1.2-4.7,2.7-6.6,4.7c-1.9,1.9-3.5,4.2-4.6,6.7C240.5,86,239.9,88.6,239.9,91.3z"/>
	<path class="st0" d="M328.3,17.1c1.6-0.1,3.2,0.2,4.7,0.8c1.5,0.7,2.8,1.6,4,2.7c1.2,1.1,2.1,2.5,2.7,4c0.6,1.6,0.9,3.2,0.9,4.8V51
		c4.4-2.2,8.9-3.7,13.6-4.4c4.7-0.7,9.3-0.7,14,0c4.6,0.7,9.1,2.1,13.5,4.1c4.4,2.1,8.4,4.8,12.2,8.3c4.4,4.5,7.6,9.3,9.8,14.5
		c2.2,5.2,3.3,11.1,3.3,17.7c0,6.2-1.2,12.1-3.7,17.6c-2.4,5.5-5.7,10.3-9.8,14.4c-4.1,4.1-8.9,7.4-14.4,9.7
		c-5.5,2.4-11.3,3.6-17.4,3.6c-6,0-11.7-1.2-17.2-3.7c-5.5-2.4-10.3-5.7-14.5-9.8c-4.2-4.1-7.5-8.9-10-14.4
		c-2.5-5.5-3.7-11.3-3.7-17.4V28.5c0-1.5,0.4-3,1.1-4.4c0.7-1.4,1.7-2.7,2.8-3.7c1.1-1.1,2.4-1.9,3.8-2.5
		C325.4,17.2,326.8,17,328.3,17.1z M340.7,91.3c0,2.9,0.6,5.6,1.7,8.1c1.1,2.6,2.7,4.8,4.6,6.6c1.9,1.9,4.1,3.4,6.6,4.5
		c2.5,1.1,5.2,1.7,8.1,1.7c2.7,0,5.4-0.6,8-1.7c2.6-1.1,4.8-2.6,6.7-4.5c1.9-1.9,3.5-4.1,4.6-6.6c1.1-2.6,1.7-5.3,1.7-8.1
		c0-2.9-0.6-5.6-1.7-8.1c-1.1-2.6-2.7-4.8-4.6-6.6c-1.9-1.9-4.2-3.4-6.7-4.5c-2.6-1.1-5.2-1.7-8-1.7c-2.9,0-5.6,0.6-8.1,1.8
		c-2.5,1.2-4.7,2.7-6.6,4.7c-1.9,1.9-3.5,4.2-4.6,6.7C341.2,86,340.7,88.6,340.7,91.3z"/>
	<path class="st0" d="M428.3,17.5c3.4,0,6.2,1.2,8.5,3.6c2.3,2.4,3.6,5.3,3.8,8.8v74c0,2.5,0.8,4.6,2.4,6.4c1.6,1.8,3.7,2.6,6.2,2.6
		c3.2,0,6.1,1.1,8.5,3.4c2.4,2.2,3.7,5.1,3.8,8.4c0,3-1,5.7-3.1,8c-2.1,2.3-4.7,3.7-8,4.2h-2.6c-4.4,0-8.5-0.9-12.4-2.7
		c-3.9-1.8-7.3-4.2-10.2-7.2c-2.9-3-5.2-6.5-6.9-10.5c-1.7-4-2.5-8.2-2.5-12.5V29.1c0.4-3.1,1.7-5.8,3.9-8.1
		C422.1,18.8,424.9,17.6,428.3,17.5z"/>
	<path class="st0" d="M511,45.9c6,0,11.7,1.2,17.2,3.7c5.5,2.5,10.3,5.8,14.5,10c4.2,4.2,7.5,9,10,14.4c2.5,5.4,3.7,11.1,3.7,17.1
		c0,3.2-1.2,6.1-3.7,8.6c-2.4,2.5-5.5,3.7-9.1,3.6h-49.8c4.1,5.9,9.8,8.8,17,8.8c2,0,3.7-0.2,5.1-0.6c1.4-0.4,2.6-0.8,3.7-1.3
		c1.1-0.5,2.1-0.9,3.2-1.3c1.1-0.4,2.3-0.6,3.7-0.6c2.6,0.1,4.9,0.9,6.8,2.2c1.9,1.4,3.4,3.1,4.3,5.1c0.9,2.1,1.2,4.3,0.9,6.6
		c-0.3,2.4-1.4,4.6-3.3,6.6c-3.4,2.7-7.1,4.7-11.2,5.7c-4.1,1.1-8.5,1.7-13.1,1.8c-6,0.2-11.7-0.8-17.2-3.3
		c-5.5-2.4-10.3-5.7-14.5-9.9c-4.2-4.2-7.5-9.1-9.9-14.7c-2.4-5.6-3.7-11.4-3.7-17.4c0-5.9,1.2-11.5,3.7-17
		c2.4-5.5,5.7-10.3,9.8-14.5c4.1-4.2,8.9-7.5,14.4-10C499.1,47.2,504.9,45.9,511,45.9z M528,78.9c-2.1-2.6-4.6-4.7-7.5-6.3
		c-2.9-1.6-6.1-2.3-9.6-2.3c-3.6,0-6.8,0.8-9.6,2.3c-2.8,1.6-5.3,3.7-7.4,6.3H528z"/>
	<path class="st0" d="M103.8,86.5c-0.4-4.5-1.5-8.8-3.2-12.9c-2.3-5.5-5.5-10.3-9.6-14.4s-8.9-7.4-14.4-9.7
		c-5.5-2.4-11.4-3.6-17.6-3.6c-6,0-11.7,1.2-17.1,3.7c-5.4,2.4-10.2,5.7-14.4,9.8c-4.2,4.1-7.5,8.9-10,14.4
		c-2.5,5.5-3.7,11.3-3.7,17.4c0,6.6,1.1,12.7,3.4,18.3c2.2,5.6,5.4,10.3,9.4,14.3c4,4,8.8,7.1,14.3,9.4c5.6,2.2,11.6,3.4,18.3,3.4
		c5.2,0,9.5-0.4,12.6-1.3c3.2-0.9,6-2,8.5-3.4v0.2c-0.3,2.5-1.2,4.6-2.8,6.3c-1.6,1.7-3.7,2.5-6.2,2.5H25.5
		c-3.4,0.1-6.2,1.4-8.5,3.8c-2.3,2.4-3.5,5.3-3.5,8.5c0,3.2,1.1,6.1,3.3,8.5c2.2,2.4,4.8,3.7,8,3.7h47.6c4.5-0.3,8.7-1.3,12.5-3.1
		c3.9-1.8,7.2-4.2,10-7.2c2.8-3,5-6.5,6.6-10.4c1.3-3.3,2.1-6.7,2.4-10.2h0.1v-48H103.8z M78.5,99.3c-1.1,2.5-2.5,4.7-4.4,6.7
		c-1.9,2-4.1,3.6-6.7,4.7c-2.6,1.1-5.4,1.7-8.4,1.7c-3,0-5.8-0.6-8.3-1.8c-2.6-1.2-4.8-2.7-6.6-4.7c-1.9-1.9-3.3-4.2-4.4-6.7
		c-1.1-2.6-1.6-5.2-1.6-8c0-2.7,0.6-5.4,1.8-7.9c1.2-2.5,2.7-4.7,4.7-6.6c1.9-1.9,4.1-3.5,6.6-4.7c2.5-1.2,5.1-1.8,7.9-1.8
		c2.7,0,5.4,0.6,8,1.7c2.6,1.1,4.8,2.6,6.7,4.5c1.9,1.9,3.5,4.1,4.7,6.6c1.2,2.6,1.8,5.3,1.8,8.1C80,94.1,79.5,96.8,78.5,99.3z"/>
	<path class="st1" d="M202.4,74.9c-2.1-5.2-4.9-9.8-8.4-13.9c-3.6-4.1-7.8-7.4-12.7-10c-4.9-2.6-10.2-4.2-15.8-4.9
		c-0.9-0.1-1.7-0.2-2.5-0.2h-2.7c-9.4,0-17.7,2.5-25.1,7.5c-7.4,5-12.9,11.5-16.5,19.7c-1.3,2.9-2.2,5.8-2.9,8.8c-0.7,3-1,6.1-1,9.4
		c0,3.2,0.3,6.4,1,9.4c0.7,3,1.7,5.9,2.9,8.8c3.6,8,9.1,14.5,16.5,19.6c7.4,5.1,15.7,7.6,25.1,7.6h45.3V91.3
		C205.5,85.5,204.4,80.1,202.4,74.9z M174.7,106.2c-1.9,1.9-4.1,3.3-6.6,4.4l-0.2,0c-2.4,1-5.1,1.5-7.9,1.5c0,0,0,0,0,0l-0.1,0
		c-0.7,0-1.4,0-2-0.1c-10.6-1.1-18.8-10-18.8-20.9c0-10.2,7.2-18.6,16.8-20.6c1.3-0.3,2.7-0.4,4-0.4c0.7,0,1.4,0,2.1,0.1
		c10.6,1,19,10,19,20.9c0,5.1-1.8,9.7-4.8,13.4C175.7,105.2,175.3,105.7,174.7,106.2z"/>
</g>
</svg>
